<mxfile host="app.diagrams.net" modified="2020-12-29T02:45:06.726Z" agent="5.0 (X11; Linux x86_64) AppleWebKit/537.36 (KHTML, like Gecko) Chrome/83.0.4103.116 Safari/537.36" etag="0M3Gn6nenidgABh6YcfM" version="14.0.0" type="github">
  <diagram id="wlRgt82doK_qDxieclHA" name="Page-1">
    <mxGraphModel dx="1422" dy="833" grid="1" gridSize="10" guides="1" tooltips="1" connect="1" arrows="1" fold="1" page="1" pageScale="1" pageWidth="827" pageHeight="1169" math="0" shadow="0">
      <root>
        <mxCell id="0" />
        <mxCell id="1" parent="0" />
        <mxCell id="V-NRUlpTSSEqKmcj68MK-78" value="" style="rounded=1;whiteSpace=wrap;html=1;dashed=1;strokeWidth=2;" parent="1" vertex="1">
          <mxGeometry x="130" y="643.5" width="590" height="110" as="geometry" />
        </mxCell>
        <mxCell id="V-NRUlpTSSEqKmcj68MK-75" value="" style="rounded=1;whiteSpace=wrap;html=1;dashed=1;strokeWidth=2;" parent="1" vertex="1">
          <mxGeometry x="270" y="410" width="280" height="170" as="geometry" />
        </mxCell>
        <mxCell id="V-NRUlpTSSEqKmcj68MK-36" value="" style="group" parent="1" vertex="1" connectable="0">
          <mxGeometry x="380" y="213" width="168" height="142" as="geometry" />
        </mxCell>
        <mxCell id="V-NRUlpTSSEqKmcj68MK-37" value="" style="group" parent="V-NRUlpTSSEqKmcj68MK-36" vertex="1" connectable="0">
          <mxGeometry x="1" y="-3" width="168" height="142" as="geometry" />
        </mxCell>
        <mxCell id="V-NRUlpTSSEqKmcj68MK-38" value="" style="rounded=1;whiteSpace=wrap;html=1;dashed=1;strokeWidth=2;strokeColor=#0000CC;" parent="V-NRUlpTSSEqKmcj68MK-37" vertex="1">
          <mxGeometry y="40" width="168" height="90" as="geometry" />
        </mxCell>
        <mxCell id="V-NRUlpTSSEqKmcj68MK-39" value="" style="shape=image;verticalLabelPosition=bottom;labelBackgroundColor=#ffffff;verticalAlign=top;aspect=fixed;imageAspect=0;image=data:image/jpeg,/9j/4AAQSkZJRgABAQAAAQABAAD/2wCEAAkGBxIQEBUQEA8SERUVFRUWEhgSFRcSFhcXFREXGBUSFxUYHyghGBolHxYVITEhJSkrLi4uFx8zODMsNygtOisBCgoKDg0OGxAQGy0lICUuLS0rLS0tLS0tLS0tLS0tLS0tLS0tLS0tLS0tLS0tLS0tLS0tLS0tLS0tLS0tLS0tLf/AABEIAOEA4QMBEQACEQEDEQH/xAAcAAEAAQUBAQAAAAAAAAAAAAAABAECAwYHBQj/xABKEAACAQICBAcMBgcHBQAAAAAAAQIDEQQhBRIxQQYTUXGBkdEHFCIyM0JTYXKhscEXIzVzssJSYoKTorPwFTRDVHSS0iREY6Px/8QAGgEBAAIDAQAAAAAAAAAAAAAAAAIDAQQGBf/EADARAQACAQIEBAUDBQEBAAAAAAABAgMEERIhMVEFEzNBFCIycYFCYZEVQ1Kx8CPB/9oADAMBAAIRAxEAPwDuIAAAAAAAAAAAAAAAAAAAAAAAAAAAAAAAAAAAAAAAAAAAAAAAAAAAAAAAAAAAAAAAAAAAAAAAAAAAAAAAAAAAAAAAAAAAAAAAAAAAAAAAAAAAAAAAAAAAAAAAAAAAAAAAAAAAAAAAAAAAAAAAAAAAACjYC4Y3guDeC4OKFUGQAAAAAAAAAAAAAAAAAAAAAAAAAAAHhcOPs7Ffcz+Bdp/Vr91Gp9K32cQw+CUoqTlb/wC2OjphrMby5S+e0W2hl/syN7a76l2kvh6ofFW23Y6+BUYuSm3btsRthrEbp0z2m2ztfAH7Nw33f5mc5qfVs6rS+jX7NgKWwAAAAAAAAAAAAAAAAAAAAAAAAAAB4fDj7OxX3M/gXaf1a/dRqfSt9nFIeQXOvxnTR9DkJ9X8JL8t+w/xos/X+FX9v8o8vIy9p/zCv+3K2PVh2bgF9m4b7v8AMzmtT6tvu67S+jX7NgKGwAAAAAAAAAAAAAAAAAAABbOVk292YJnZqS7o+j/S1P3VTsNr4PL2afx2Hur9I+j/AEtT91U7B8Hl7Hx2HufSPo/0tT91U7B8Hl7Hx+HufSPo/wBLU/dVOwfB5ex8fh7n0j6P9LU/dVOwfB5ex8dh7vL4T8OsFiMHXo06k3OpTlGKdOaV2ss2sizDpMlbxMwqz6zFbHMRLnOHxFNU1Gd+p8t1sPdpevDtLm7478W8M3flO+td3tbY9l7k/Npvur8nJtsw4jEU3Bxi3m77H+ldkLXrwzELKY78cWl2jgF9m4b7v8zOb1Pq2+7rdL6Nfs2AobAAAAAAAAAAAAAAAAAAAAGPE+JL2X8DMdUbdJfPGjYx4tylFO3qvsjc6rFEbTMuMzTPFERKXqU/B8BeFsyXJct2py5Kvn58+ikqcGppQV4rkXJfIxMVmJ5MxN4mN56sGDjHi3KUU7N7s9xDHEcO8p5JtxxESkunC6jqLNN7FuLNq9le99pndjrQg4Taglq3WxbVvRG0Vms7JVm0WjeeqzDRgqSlKKefIr+NYjSK8G8pX4uPaJZ+Khrauor2vsXLYs2rvtsq4rRXfdgxEYOnKUYpWdti3SsyF4rwzMLKTaMkRMuzcAvs3Dfd/mZzOp9W33dfpfRr9mwFDYAAGHFV404SqTkoxinKTexJK7ZmI3naEbWisbz7ObaO7p774nx9L/p5S+rcV4dOOSzXn8rW1Xe09G+gng3r1eVTxL55i0cnScJiYVYRqU5KcJJOMou6ae9M86YmJ2l6tbRaN4ZjCQAAAAAAAAAAAAGPEeJL2X8DMdUbdJfPOjvIz5n+A6rF9EuMzfXH/e6S15L+vMJ+1Vf+Qv8AF/rzDP8Akb/Sj0PIS6fkV09NO/qQlT8pD2ZfBFs78UKuXBP3YpL6ur7UvgiH6ZT/AF1+yyC+oXP+cxHppW9WfslNfW/sfmLP1qv7f5Rp+Rl7T/mFc+nK2PVjb/uTs3AL7Nw33f5mc1qfVt93XaX0a/ZsBQ2AABoPdb0m4YenhovOtK8vYhZ26ZOPUze0OPivxdnm+JZeGnD3aBHDrUUGrr58p0XBHDtLlZyTNuKHscCOEUsBXVCrK+HqvfshJuyqLkW6S6d2fla3SbxvHWHt+H63adp6S7ImeI6FUAAAAAAAABRgcsq90vFKc4xw1GWrKS897JNLf6j1KeHVtG+8vGyeKTS0xMQp9JeM/wApS6qnaT/pkd5V/wBX+y2p3ScY013pSzVtlTtH9NiPeSfFt425NJwVScYtQhrZ8j5PUeljtasbQ8rJStp3mUjvqr6L3Ms479lXl4/8ltTE1LNOnue5mJvbaeTMUxxMfMxYStOMbRhrK+2z+RClrRG0QnkrSZ5yz981fRe5lnHfsr8vH/ksrYio4tOnZWzdnkRte+3OEq46b7xK3DV6iilGF1nnZ8pilr7coZvSk23mdmXvmr6L3Mnx5OyHl4/8mLE16ji1KFlld2fKRta23OE6UpFt4ls+hOHeKw2Hp0KeGpzjCNoyand5vN2Z5t9BGS023nm9XH4nOOsU2jknfSXjP8pS6qnaQ/pkd5S/q/2Wz7p2LSu8LRS9ev2ifDYjrMpR4tM9Ih0vQ2LdfDUa0kk6lKnUaWxOcFJpX3ZnmXrw2mOz2MduKkW7w5h3UKmtpKlHdGlG3TObfwXUet4bX5d/3eF4vaeLb9nhntufRsfS1oP1Z9pXlrvX7LcFuG7rXATS6raPpTqTSlFOnJyaV3B2Tbe9qz6Tl9Ti4csxDsNJli2GJl7sMfSlkq1Nv1Ti/mUcNmzx17pCZhKJ3VAAAAAAAA+fqHla/ty/HI6nTfR+IcbrPU/Mqqs9Sm98nFPpTLuKeGJa/BHFaGRVG5yjuSVulEt/mmEdtqxKHo+Vqc2t131RKsU7Vldmje0RKU6r+r/W2/7blnF9Krhj5v2UdRvjE92zpiYmd4szERE12R8LNxoyktqbt7iFJ2pMwsyRvkiJS5VHrxjuak30It3+aIU8McMyw1KjcKl9zklzJIhM71lOKxF67LKFRxoprl+MzFZ2oleu+Wd0lzfGau7Vv061izf5tlXDHBv+6PXm5UZN8rXVOyK7TM0lZWIjJG3/AHJdSm1Tp23tJ8zbMxO1YYtETe27NGb13HcoxfW2TiZ4phCa/JEomJqOVBSe1tfMrvMzTeVtIiuSYh3Lgp/cML/pqH8mJy2b1LfeXZYPSr9oc77qdHU0hRqvZOkl0xnJP8UT1PDbfLt+7xvFqfNv3h4J7jnVs9j5mYnozWebzVgVvk2a0Yobk5pHgI8r9w8uGPNlMwWMxOGeth8TUhbcpeD0xd4vpRTk01LdYX4tXes8pmHUeAPCqpj4TjVpas6SjrTj4kta9snmpZPLNHi6rTxinlPV0Gj1U5oneOjbjVboAAAUAGB8/wBDytf25fikdVpudOXaHG6ydsnPvKqoPVprLwXFvoT2F/BO0Q1pyRxTPdkjTalKXKl7kzPDO8yxxRMREIej43pzS33XXEqxRvWV2adrRMpTpPwP1dv+2xbwzyU8cfN+6jptcY+VZdETG31MxaJ4YYMJDWoyit7fyK8cb0nZbkmIyRMpUqb14y5E11ot4Z3iVHFHDMd2KpTap1L73JrmaRGa7VndOtotauzHh6blRSXL8JkaRM40r2iuTeUrUfGa27Vt/Fct4Z4t/wBlXFHDt+6NXpuNGSfLfrndFdqzFJ3W1tFskbLqVNyp07bmn0JszWN6wxa0ReWeNNqbluaS6m+0lFZ4t1c3jhiETFU3GgovamvmV3jakQupO+SZdx4K/wBwwv8ApqH8mJy2b1LfeXY4PSr9oan3Vq2GqYdRdenx9OSlCCetJqWUotLxVbO73xRt6GL1vvtyaXiE47U235w0LB1teCb27H6/Wjosdt4ctlrw2ldVluFpYrDGQTAMNVynJUqcXOc2opRzbbyUV62VZMlaxO6/DitaYdq4H6CWBwsaOTm/Dqtb5tK/QkklzHOZ8vmX4nV6bDGLHFXuFLYAAADT+6ljZ0cCnTnKEpVYRvCTi7JOTzWfmm1o6xbJzaWvvNcXJzCni8U/+9rrK/lan/I9yulpPtH8OetrLx7z/KOsDPNqpt27c+fMujDMdJa86iszvMLu85+lfW+0z5Vu7HnU7Kd5z9K/f2jyrdzzqdlI4CS2VLc10Y8m0dJZnPWesLu85+lfW+0z5Vu7HnU7KPBz9K/f2jyrd2fPp2UjgZLZUtzXRiMVo6STnrPWFe85+lfW+0z5Vu7HnU7DwU3k6t+vtHlW7nnU7KRwM1kqtua6+ZiMNo92Zz0nrCvec/SvrfaZ8q3djzqdiWCm8nVvz37TE4bT7sxnpHsLBTWSq26+0z5Vu7E5qT7K95z9K+t9o8q3c86nZbLAzeTq357v5mJxWnrLPn0jpDO6VaUVCWJqOKSSjrScUkrKKi3ZIhGlrvv/APE51lttuf8AK2jgIR3X59nUXVw1hRbPaeiU3ZFk8lUc5QsRiFHbncovfZsUx8TFDF6ztGDk+RZv3IhOesLY08y9fR3BvH4p2p4eVOL86qnTXvzfQjWy62lfdt4dBkt7Ok8EOBdLA/WSlxtd7ZtWUU9sYLdz7X6jyM+qtl5ez29No64efWW1Gs3AAAAAaP3XYXwMHyVo++E18zd0M/8Ar+Hn+Ix/5flzfDPZzfI6KjlcnuklqkAAAAAAAAAAAAAAAAAAGGpIrtK2sPe7mWie+cZLEyV4UF4N985JqK6Fd9KPH8QzbV4Y93ueG4N7cU+zrqilsSPH3l70ViPZUMqgAAAAAA1bul4Z1NG1bbYOnPojUjre65s6SdssNTXRvhlyTCS8GL/rI6Sk8nJZI+aU0va4AAAAAAAAAAAAAAAAAY6krZEbSlWPdDr60mqUE5Tm1GKW1tuyS52a+W8Vht4aTazt/BXQscFhYUFZy8ao1505eM+bcvUkc1myzkvNnWafDGKkVewVLwAAAAAAACLpPCKvRqUZbKkJQf7UWvmSrbhtEoZK8VZiXAcLFxcqc1aUJNSXI07NdaZ0+K28OPz14ZT4O6NqJ3hpz1XGWAAAA9Lg7ovvvERouWrGzlNrbqx229eaXSa2rz+Ri4vfpDb0Wn+Iy8Ht1ls2iqGjsZOph6eG4tQjeFR1Gpy8K10nm+XP1ZZngxr9RE8XF+PZ0k+G6aa8PD+fdqGk8G6FadGTu4Savyran0po6LBl83HF+7lc+KcWSaT7IxaqAAAAAAAWzlYxadmYjdFq1NVXZVa20L6VmeUN37l/Bxyf9oV48qw6fU6vNuXS+Q8PXajf5I/LofDtLw/+k/h0tHmvXVAAAAAAAAAUYHHO6NovvXH8cl9XXWt6lJWVRfCX7TPa0GXevDPs57xPBw33j3eNSketWXiXhmLFYAAAehoDSjwteNZLWSTjJcsZbUvXkn0GvqsEZsc0bWk1M6fLF/5e5RnoujUWKhOtOSevCi42SltSu1sT2Z9Z4ceHZ5nhmPzu6KfFdPFeKJ3/AG2a3pDFyr1Z1pZOcnJpbuRdCsjoMOOMdIpHs5jNlnLkm8+6OWKgAAAAALZzsRmdma13R6k7Ztlc2XVr7PY4GcGZaRq8ZUTjh6b8L9dr/Dj830bdnmavVxSNo6vX0Oi453no7NSpqKUYpJJWSWSSSySR4m+7oYiIjaF4ZAAAAAAAAAADxOGGgljsLKjkprwqTe6a2dD2PnLsGWcd9/b3a+pwxlpMe/s4lGo6bdOqnCUG4yT2pp5p8x0ePLEw5XJhmLbbJMMZB+ei+MlWtbFbsrLFwXnLozE5Kx7seTefZiWO1nq04SnJ7EldvmSu2V21EVW00trNk0JwIxuIkp1msNDbaavJ81NP8TXMefl8RrWeXP8A09TD4Va0bTy/287HYSdGpKlUVpRdn8muVPaepiy1yUi1XjZcVsV5pbqwFisAAAAAABjlU5CM2TrVHq1VHNvtZVa2y2tZmeT2+CXBKrpCSq1b08Ont2OdvNh85dR5uq1kU5V6vX0ehm/O3T/bsWDwsKNONKlBQhFWjGOSSPFmZtO8vfrWKxtDMYSAAAAAAAAAAABRgaL3QeBnfSeJw8VxyXhxWXGpbLfrrdy7OQ3dLqeD5bdHn6vSeZ81OrWOCuj9G4v6mtRlRxCyceNqRU2turd5S5Y7S/PbNSd6zya+mjBkjhtG1m54PgZo6DzwqfrnOc10puxqTqss+7djR4I9myaPwFCjG1CjSpr/AMcYx67Iote1ustiuOtfphLIptb4XcG1i4a8LKtBeC9ikv0JP4Pd0m9otZOCdp+mXmeI6GNRXir9UOX1qUoScJxcZRdpJ5NPkOkpaLRxVneHKXpNJ4bRtKwkiAAAOax1FzkZslFWKc+V2RCbJxVghUlUmqdGEqk3klFOT6EtpRfNWsNnHgtaejfeC3c6zVbSFpPJqindL7ySyfsrLnPI1Gum3y0/l7mm8OivzZP4dHpwUUkkkkrJJWSS3JHnb7vViIiNoXBkAAAAAAAAAAAAABSwGq8LOBNHG/WwfE1904rKTWzXW/2lmbOHU2x8p5w09RpK5eccp7tWjpzSGjGqePoyr0llGond23WqbJc07S9ZszhxZueOdp7NWufNp/lyRvHds2iuFuEr21MRGEn5tV8VLmzyfQ2auTTZKdYbuLV4snSeb34YqVr3TX9b0UbNjffoyLF8sfeYHjcINDUcYryi4VEvBnG1+aS85G3ptXfBO1ecdmlq9Dj1MfNynu55pfQtfDPw6blDdOHhR6d8ek93DrceWOU8/wB3N5/D82Geccu8PK431GzxNThWyqvlSMcSXAwTxMVtlfmzK5vHdZGOV2Dp1sRLVw1CdV/qxckudrJdLKb6itffZsY9La88oltuh+5rXq2ljKvFL9Cm1OfM34sei552bxCP0Q9XD4XPW8uhaE0Dh8HHVw9JQv40vGnLnk83zbDzsmW+Sd7S9TFgpijasPUK1wAAAAAAAAAAAAAAAAAALZ01JNSSae1PNPnQYmInq1fS3c/wNe7VN0JPfRer/C04+42sery0992pl0OK/tt9ngvucYii74TSM4LcmpQ98JW9xd8bWfrq1/gL1+i8wtegdOU/ExkJrdeSb/jh8x5umnrU8nVx+qFO8dP+kp/+j/iOLS9pZ4db3hVaJ09LJ4mnHppr8NNjj0sdIn/vyxOPWT1tH/fhE+jjG1ZOVbFUYt7dXWfuSii34+lY2rEqP6Ze072mE/Cdyqn/AI2LqS+7goe+WsVW8QtPSF9fC6x1lsGjuAeAo2fe/GNb6zdT+F+D7jXtqstvdtU0WGns2KlRjBKMYqKWxRSSXQiiZmerZisR0X2MMqgAAAAAAAAAAAAAAAAAAAAAAAFAKgAAAAAAAAAAAAAAAAAAAAAAAAAAAAAAAAAAAAAAAAAAAAAAAAAAAAAAAAAAAAAAAAAAAAAAAAAAAAAAAAAAAAAAAAAAAAAAAAAAAAAAAAAAAAAAAAAAAAAAAAAAAAAAAAAAAAAAAAAAAAAAAAAAAAAAAAAAAAAAAAAAAAAAAAAAAAAAAAAAAAAAAAAAAAAAAAAAAAAAAAAAAAAAAAAAAAAAAAAAAAAAAAf/2Q==;" parent="V-NRUlpTSSEqKmcj68MK-37" vertex="1">
          <mxGeometry x="50.4" width="69.85263157894737" height="69.85263157894737" as="geometry" />
        </mxCell>
        <mxCell id="V-NRUlpTSSEqKmcj68MK-40" value="&lt;font face=&quot;Lucida Console&quot; style=&quot;font-size: 18px&quot;&gt;Backoffice&lt;/font&gt;" style="text;html=1;strokeColor=none;fillColor=#FFFFFF;align=center;verticalAlign=middle;whiteSpace=wrap;glass=0;dashed=1;fontSize=20;" parent="V-NRUlpTSSEqKmcj68MK-37" vertex="1">
          <mxGeometry x="40.67368421052632" y="124.21824686940965" width="88.42105263157895" height="17.781753130590346" as="geometry" />
        </mxCell>
        <mxCell id="V-NRUlpTSSEqKmcj68MK-41" style="edgeStyle=orthogonalEdgeStyle;rounded=0;html=1;exitX=0.75;exitY=1;entryX=0.75;entryY=1;jettySize=auto;orthogonalLoop=1;fontSize=20;" parent="V-NRUlpTSSEqKmcj68MK-37" source="V-NRUlpTSSEqKmcj68MK-40" target="V-NRUlpTSSEqKmcj68MK-40" edge="1">
          <mxGeometry relative="1" as="geometry" />
        </mxCell>
        <mxCell id="V-NRUlpTSSEqKmcj68MK-42" value="" style="shape=image;html=1;verticalAlign=top;verticalLabelPosition=bottom;labelBackgroundColor=#ffffff;imageAspect=0;aspect=fixed;image=https://cdn3.iconfinder.com/data/icons/social-media-2169/24/social_media_social_media_logo_docker-128.png" parent="V-NRUlpTSSEqKmcj68MK-37" vertex="1">
          <mxGeometry x="58.5" y="3" width="50" height="50" as="geometry" />
        </mxCell>
        <mxCell id="V-NRUlpTSSEqKmcj68MK-43" value="" style="shape=image;verticalLabelPosition=bottom;labelBackgroundColor=#ffffff;verticalAlign=top;aspect=fixed;imageAspect=0;image=data:image/png,iVBORw0KGgoAAAANSUhEUgAAAGgAAABqCAYAAABQ1BSqAAAN20lEQVR4Ae2de3AV1R3Hv+e+EhLeGEOMT15JrgJaRkQNvgi24ji2PkuFaf8QKnJjabHjOFZNVZQZrY4mwIg6bQHbqlNtO6MRE6wvFHEqVjQvLdgRGoMmgMoryd3T+e3Nudns3d27u3fv3d0b70xmd8+e3znf3/nd3bt79rO/MAyzz9KmSWNCEhudS7f7A/zr9fN3HbTTZ8iOkV9tLqpDKMIK32EhVOXShwBH60V1mPFaHfqt9huwauDn+mdUVy1nLLfBofGiPqlvO2PH7Bj50WZ5c+UExgKfMGCcG/o5sJ9zaeqamrZuK/0PmyOIcXafW8GhgFDfpMFKcAbsrJr4r36sqXI6GNvBGAu6qZ5zHgfnZzXMb9tpVsewOIIYCzzqdnAoIKSBtJgNDtXL+wDVNlVeBYaLrQxKVusyXCxrMtlJXgfospemFHDGHjI5FjmrRppIm5kO8zpAUyKRlYyx08wMRC7rkCbSZqbPvL3MXvpyVVkkzDoYMNLMQOS6Dge+7e3j09b/oLXTqO+8PYIiIaz2anAoIKSNNBoFZ6Beuir+21+7ZdpsjuA2RvfwHv5wcM4Qn1M/r2O7nsx8PIIYePBRrweHAiJr5EG67Nb9Iunu0Iuo18tjzdFFjGGjmzofu+TjlO5vefX0lDJRwDkWN9S0bBLbymVeHUGLN5cWAzzteV05AN5Y56sT2lPV5FWAxgTG384YK09109slpJm0a6nMmwDd1Fh5KgIwdW+hNRCulwWwUvZBJSRvAhQOBx5kYIUq/3yzSdrJB7XgvHiiuuyVygvBcI3auWxsW70AsKSB4RryZd2lba8LO/8fQXUIBIPWZoiF815cyr7UDU5i+z5AtdWVSxgw04uDbUcT+UI+CVtfB4gIHTB2r3Amb5aM3Sv75vfnQZFAwd0AK8mbwCQdYSUJ3wDfXiQsa6yoAFgs6ZMDK1m9ALCsj8WWNVY87ttTXDAceIQBYct++8SAfCMffRsgAJJPxjoTmZLtU5zbCG28T1oZjAQvzdejiAN95KOtAHkBoV13WXt7bXO0Hgy/yuQr6lVbxlFPPto6xXkFoT3Gj94D8C+9Osj2dfEvE77ZwK4IoQVjd9vvPENLxu6WNQCQ3xiQ+B0Ztug9c4nfId6GsHwEeQ2hrd/a9hTn+MB7o2xPEflCPglrS79BCYQWyWkI0UjOlwxLYk2Va2WEtg5S/BVpRSgYeM1Ih7fucfSVxiVpBeoGr1AtHUFeRWhp9pcDz+m77Y895INyJptUmw6Q1xFafpT/moMf9UcoUlWSdvJBvcdUgPyA0K65vPW/DPAc5qsecL1t0k4+qPebCpBfENoD/T2rOed71U56fZs0k3YtnWkDRAgtZ9AEGrQazHUZaSON1O/G73cdkiDdlmsNmfZHmkm7VjtpA+Q3hHZtTfufwPk2LWc9Wcb5NlmzjjjDABFCC4bFOrbeKWZYLGtNKOJg8V8QVusdgdpKSGMc8VsA6Go1CpBvEVqZdebYoD0sHirl2LC2puM9I0W6N6qx5ugNYJhjZGx2H0MAZ0+8ArNKF6B8ZAVGhMfgm96vsPvADrz7xd/R1rPVbFP69RibQ5oFQtvbj9sjYVzt1Tcc5NdP+tP/tmseQU4itKVFk3Db7OexKHo/qiZUY3RBCcKBCMYXnoBZEy/HzWeux89nrMOIkBPJPwYRWvm9G0laJSLa0eOxnyVJWpXu3SDSrhkgpxDasuKp+OWsTThh5FQxTprL04+7ACtmbcSI0CjN/WYL1Qjtf/r6H+Ecu8j+r5+shsTjZpvKaj3SRNrMdJISIKcQ2nCgADdOfxRF4TFmdKCseAp+UmU5jUBq2wqEtnHBp8c447dSpc5Dn2Dr3mdT67tQQppIm5muUwLkFEI798SFKCk6xYyGZJ2ZJTWYNOZ7yW07K2qEds281hc48Cq19eKuehzus5XTyI4UTRvSQpo0d2oUDgmQkwjteSdcp9Fd+qLzy+3ZDWl5AKFNlknSCkoicbj/IF7avSZZnKsViSfwCTmRBc1WW/gMBshBhHZcYRmOt3j0CM0V488VqxktlQgtPZZgDOupwbf2/gWdhz7NqG2rxi3db8gmpMFKlhEySgbISYR2XIE882LVD7n+6MhxCLHMaSo1QitxficlNKILhec7NKe9bOk1Y/TGnqfpTnQ/aTBTX1lHDpDTCG0oEFH2YXk9GMg8QHKnCoSWskwxjjoqb9//DjZ/9rhlXXYMug7tRlvP26C+rWa6ov7kG1WnEdqve+1zHMfih0F/znySCK1M/ux8q2XtGdXRmyh/24u7Hkvpwug9UlHZTh3O0frRWy1rRRtWlowQ2mAkuNNJvoxmDu6f+yaKw2OtaJHrtnZvxbp/L7Vsp2cg82W98emEMFEdt3k+PZ165aFsILQcEj7Ytxnnl1+v169u+fv7GnX32dkhEFoAC8h+gJZx91rbgiP0G5QVhPaVz55Ab9zaE+h9hz/De1/8w4J801Wz4qPp3jOoGMoWQrv/WCeeaf8tFkcfMCWPgvn7j1Y6Ph0jEFohwm+nODmRRW1z9HdOIbQMDNEJF+Dj7sRrlnPKrsL1FXfB6MrsUN8BrP8wht0Hd8jjOLagFAeOdYkxzWzJ8XB9TYv89jchy2dURz/MdWLZgYsE+1l/nUJoR4bHYflZT2HpjDWoGl8tD+y2zufxwPYfYce+zeiLD51+osC8/vkm3Lft8mRwpo6djTvnNOLaaXcimPH90CBCS2K8gixb+cYlU8HUNlUuQSAg321baUDUHVswEcvPfBKlxYn0bHTK+nPbXfhX14uiCiLBIpQWnSo/Wvimtxtdh3cNOaVVl/8YV029DeI+qqX7TTy58xb0S73JNiytSNLS+vltT5CNX7P+JpOsbp/81QezTy65kjFMtDQIgPyYgB4XiOCQfTAQwpnHz8eUsbNxpP8geo7sRZ90DHSP1H10D77t6wEHl2cNZpTU4IbofaB5uIAi7ytNtpaPrMT7Xdav7AihbdjaehNeSzxOPmdxycOMsblWfXOqPgNGgGP09o1fDX5jTTSePIKoLk2WpkNotdpcNvNx+WGc1j5R1hs/gs+/aUH3kT3yjWgkWIjjRpyMk0ZFEQmOENU0ly/vXoeXdjdo7tMr7I9LFwlK089Zf4cEiJyNbYk+y4Br9RxXl59bdjUWVt2jLnZ0m+bPHnrveuz5ttVUu4TQNsxrSU6L1zZHX/VMYlmOf9bXtFxiyhHlZKkwsILQFgaLceWU7KfHodPetRXm5hnVCK3XkWUx7nrL5Gy2qGAFoa0+caHpJ6aifbvL08bMBF3hpfsoEVo/IMvp/EkJEBmYRWjnli9M176j+y88aZFhe2qE1i/IspFTmgEyg9CeOnomxhVavuAz0pJ2H91bRQL6FxRKhNZPyLKR45oBIoN0CG10Qu6vWMPBAkwdp3OaUyG0fkOW9YKkCy7KOKqM0Gpnz6XLYzc+J46qSk4jif4JoZUUCG0i628qsqz1lp1oI1fLIc+TEsjyGqOsv0YBAhnGmqs2gOGnagdKiyepi3KyPbF4cmo/QxHaBLLMtFMyDxmg1JayWqL+giiy/p6nx2frnuKEUkJoCVMV22JZFDLHu4n6Ti3V/aoR2gSyzBxBlp3SbNjOALKsV8fwCCIjwlNjTZWrEAgMeW7w+p5NQ6Zl9Dpwurzn6P+GNikjtG1yev1BZDnl/nuojee2ZGT5Ba13hNIGiHwhTHVyJLKEMSTPa40u8GXqcVUjtE4hy+p+sr09iCx3/UbdV9pTHBkoEVp1A25uKxFap5Bl1/xRIMtKDaYCRAZKhFbZgFvraoTWKWTZLX/UyLLQYTpAssEAQiuM3VqqEVonkWW3fJL7VSPLWpOlRgKVCK1RvWzvG4LQOogsZ1u3mfaVyDLVt3YEEQI0gNCa6SwbddQIrZPIcjb0Wm1TjSxbDpASobXauRP1lQit08iyE/ocaUOBLFsOEAkghJZIFUfEWGiE+qS+hYnTyLJo1/1lElm2l/WX/mn4tKaj54biuf+v8uIflmcj66/7gVEqSGT9NXWjqjQT624jtNlAloVvXlgKZNnWKc4LDmQLWfaIb0KG5NsAEbJMWK/wJN+WAln2bYDodRLKjJtvgRH+ZJT1VzTi9tIpZNltP1L7H0SWfXsEkVPfZf1NDa3nSr7L+uu5kKgEmcz6K6zUj51FuVeW6qy/fnv0qDuOVpFl3YZc3KFGlkmK7RtVF/3Q7FrOmFuIK+z+J0injiy7UEoCWYa9rL+aI+KxQivIsseky3KUyLJSn6+v4pSO0LpZZFlt5/a2GllW6smb3yDh1M3NFTcEWVDzH5eLOl5bxnl80dqa9qe1dOVdgACw2uaqt8HMsXEFwSJcV3GXnLJTa4Cslr3b+Tc8234v+iSTKQg431Zf02ofXLQq0AP1TWf9PXnUdDldJ+VTdepzTtkPcevZz0CTgFV1Yibrbz4eQfIwxJqr/sAYS0GWaSelCqg55UYsOC0mv0urGjdHNumVz+c6VuHdTv3cfZzzPzbUtP7MqMO8DRC9fhIJsw5PZ/3t49PSJZbNq6s45TdRnfVXuc8T65lk/fWEAw6IUGb9daA5x5pQI8tGDeftEURO+wFZNgoO7cvb3yCl47Et0S0MMP3qu9LW6XVClhvmtcwz225eH0HJQfAospzUZ7AyLALkSWTZICjKXcMiQOSw15BlZRCM1odNgLyELBsFRL1v2ASIHPcKsqwOgtH2sLiKUw6A31Ji/h+liHgDGRA08gAAAABJRU5ErkJggg==;fontSize=20;fontFamily=Lucida Console;" parent="V-NRUlpTSSEqKmcj68MK-37" vertex="1">
          <mxGeometry x="49.85789473684213" y="58.23613595706615" width="52.16842105263158" height="53.05263157894737" as="geometry" />
        </mxCell>
        <mxCell id="V-NRUlpTSSEqKmcj68MK-67" value="TIDB" style="aspect=fixed;perimeter=ellipsePerimeter;html=1;align=center;shadow=0;dashed=0;spacingTop=3;image;image=img/lib/active_directory/database_partition_4.svg;" parent="1" vertex="1">
          <mxGeometry x="170" y="680" width="50" height="37" as="geometry" />
        </mxCell>
        <mxCell id="V-NRUlpTSSEqKmcj68MK-68" value="" style="outlineConnect=0;fontColor=#232F3E;gradientColor=none;fillColor=#3334B9;strokeColor=none;dashed=0;verticalLabelPosition=bottom;verticalAlign=top;align=center;html=1;fontSize=12;fontStyle=0;aspect=fixed;pointerEvents=1;shape=mxgraph.aws4.aurora_instance;" parent="1" vertex="1">
          <mxGeometry x="311" y="659.5" width="78" height="78" as="geometry" />
        </mxCell>
        <mxCell id="V-NRUlpTSSEqKmcj68MK-69" value="LDAP" style="points=[[0.5,0,0],[0.765,0.48,0],[0.99,0.98,0],[0.5,1,0],[0.01,0.98,0],[0.235,0.48,0]];verticalLabelPosition=bottom;html=1;verticalAlign=top;aspect=fixed;align=center;pointerEvents=1;shape=mxgraph.cisco19.ldap;fillColor=#005073;strokeColor=none;" parent="1" vertex="1">
          <mxGeometry x="491" y="680.75" width="50" height="42.5" as="geometry" />
        </mxCell>
        <mxCell id="V-NRUlpTSSEqKmcj68MK-71" value="MAIL" style="html=1;verticalLabelPosition=bottom;align=center;labelBackgroundColor=#ffffff;verticalAlign=top;strokeWidth=2;strokeColor=#0080F0;shadow=0;dashed=0;shape=mxgraph.ios7.icons.mail;" parent="1" vertex="1">
          <mxGeometry x="640" y="693.75" width="30" height="16.5" as="geometry" />
        </mxCell>
        <mxCell id="V-NRUlpTSSEqKmcj68MK-72" value="User" style="verticalLabelPosition=bottom;html=1;verticalAlign=top;align=center;strokeColor=none;fillColor=#00BEF2;shape=mxgraph.azure.user;" parent="1" vertex="1">
          <mxGeometry x="263.5" y="280" width="47.5" height="50" as="geometry" />
        </mxCell>
        <mxCell id="V-NRUlpTSSEqKmcj68MK-73" value="Metabase" style="shape=image;html=1;verticalAlign=top;verticalLabelPosition=bottom;labelBackgroundColor=#ffffff;imageAspect=0;aspect=fixed;image=https://cdn0.iconfinder.com/data/icons/thin-line-icons-for-seo-and-development-1/64/Programming_Development_analysis-128.png" parent="1" vertex="1">
          <mxGeometry x="352.5" y="420" width="128" height="128" as="geometry" />
        </mxCell>
        <mxCell id="V-NRUlpTSSEqKmcj68MK-34" value="" style="shape=image;html=1;verticalAlign=top;verticalLabelPosition=bottom;labelBackgroundColor=#ffffff;imageAspect=0;aspect=fixed;image=https://cdn3.iconfinder.com/data/icons/social-media-2169/24/social_media_social_media_logo_docker-128.png" parent="1" vertex="1">
          <mxGeometry x="491" y="380" width="50" height="50" as="geometry" />
        </mxCell>
        <mxCell id="V-NRUlpTSSEqKmcj68MK-77" value="" style="endArrow=classic;startArrow=classic;html=1;" parent="1" edge="1">
          <mxGeometry width="50" height="50" relative="1" as="geometry">
            <mxPoint x="293.75" y="403" as="sourcePoint" />
            <mxPoint x="293" y="360" as="targetPoint" />
          </mxGeometry>
        </mxCell>
        <mxCell id="V-NRUlpTSSEqKmcj68MK-79" value="" style="endArrow=classic;startArrow=classic;html=1;entryX=0;entryY=1;entryDx=0;entryDy=0;" parent="1" target="V-NRUlpTSSEqKmcj68MK-75" edge="1">
          <mxGeometry width="50" height="50" relative="1" as="geometry">
            <mxPoint x="195" y="633" as="sourcePoint" />
            <mxPoint x="194.5" y="590" as="targetPoint" />
          </mxGeometry>
        </mxCell>
        <mxCell id="V-NRUlpTSSEqKmcj68MK-80" value="" style="endArrow=classic;startArrow=classic;html=1;" parent="1" edge="1">
          <mxGeometry width="50" height="50" relative="1" as="geometry">
            <mxPoint x="350" y="633" as="sourcePoint" />
            <mxPoint x="349.5" y="590" as="targetPoint" />
          </mxGeometry>
        </mxCell>
        <mxCell id="V-NRUlpTSSEqKmcj68MK-81" value="" style="endArrow=classic;startArrow=classic;html=1;" parent="1" edge="1">
          <mxGeometry width="50" height="50" relative="1" as="geometry">
            <mxPoint x="516" y="633" as="sourcePoint" />
            <mxPoint x="515.5" y="590" as="targetPoint" />
          </mxGeometry>
        </mxCell>
        <mxCell id="V-NRUlpTSSEqKmcj68MK-82" value="" style="endArrow=classic;startArrow=classic;html=1;entryX=1;entryY=1;entryDx=0;entryDy=0;" parent="1" target="V-NRUlpTSSEqKmcj68MK-75" edge="1">
          <mxGeometry width="50" height="50" relative="1" as="geometry">
            <mxPoint x="649" y="633" as="sourcePoint" />
            <mxPoint x="649" y="590" as="targetPoint" />
          </mxGeometry>
        </mxCell>
        <mxCell id="V-NRUlpTSSEqKmcj68MK-83" value="" style="endArrow=classic;startArrow=classic;html=1;" parent="1" edge="1">
          <mxGeometry width="50" height="50" relative="1" as="geometry">
            <mxPoint x="460.75" y="402" as="sourcePoint" />
            <mxPoint x="460" y="359" as="targetPoint" />
          </mxGeometry>
        </mxCell>
      </root>
    </mxGraphModel>
  </diagram>
</mxfile>
